<svg xmlns="http://www.w3.org/2000/svg" viewBox="0 0 100.54 100.48">
  <g id="a97af874-791c-4162-8a5f-3b7bf605402f" data-name="Ebene 2">
    <path d="M11.12,83.42a.09.09,0,0,0-.12,0L.48,94.8a1.83,1.83,0,0,0,.11,2.58L3.4,100a1.88,1.88,0,0,0,2.65-.11L16.52,88.54a.1.1,0,0,0,0-.14Z" />
    <path d="M23.23,86.2v-.13L61.8,45.63l0-.1L63.4,32.27a.1.1,0,0,0-.11-.11L50.2,34.79l-.1.05L12.91,76.55h-.13L6.42,70.82a.14.14,0,0,0-.21.05L4.76,74.21l0,.16L15.59,84,26.06,94l.16,0,3.21-1.71a.13.13,0,0,0,0-.21Z" />
    <path d="M100.48,37a.11.11,0,0,0,0-.21L76.25,28.9a.12.12,0,0,1-.08-.1L75.2.11A.12.12,0,0,0,75,0L51.32,16.77a.15.15,0,0,1-.13,0L31.86,3.19a.12.12,0,0,0-.18.1l.58,23.6a.11.11,0,0,1-.11.11L.83,27.68a.12.12,0,0,0-.07.21l26.6,21a.1.1,0,0,0,.13,0l3.88-2.46a.11.11,0,0,0,0-.16l-7.55-10a.11.11,0,0,1,.08-.18l16.45-1.69a.11.11,0,0,0,.1-.11l.38-15.38a.12.12,0,0,1,.18-.09l9.53,6.57a.13.13,0,0,0,.12,0L66.31,18a.11.11,0,0,1,.16.09L68.16,35a.09.09,0,0,0,.08.09l10.88,3.33a.12.12,0,0,1,0,.21l-9,4.83a.11.11,0,0,0,0,.15L76.65,56a.12.12,0,0,1-.1.17l-13-.13a.11.11,0,0,0-.11.11l-.89,16.79a.11.11,0,0,1-.19.08L52.19,63.76a.11.11,0,0,0-.18,0l-2.54,4.82a.11.11,0,0,0,0,.11l18,27.37a.12.12,0,0,0,.21-.06l2.59-32.81a.11.11,0,0,1,.15-.09l27,9.39a.12.12,0,0,0,.14-.17l-16.9-26a.12.12,0,0,1,.05-.16Z" />
  </g>
</svg>