<svg xmlns="http://www.w3.org/2000/svg" viewBox="0 0 135.87 135.87"><defs><style>.b982abde-b3ba-4303-a000-5e09dbbd8f98{fill:#e6b40a;}.b6147f8a-95d6-4872-bec0-356712497af0{fill:#fff;}</style></defs><g id="e3592e1a-b241-49b3-8b6d-699df52d7e3a" data-name="Ebene 2"><rect class="b982abde-b3ba-4303-a000-5e09dbbd8f98" x="19.38" y="19.38" width="97.11" height="97.11" rx="4.17" transform="translate(67.93 -28.14) rotate(45)"/><path class="b6147f8a-95d6-4872-bec0-356712497af0" d="M67.93,135.87a5.14,5.14,0,0,1-3.65-1.51L1.51,71.59a5.18,5.18,0,0,1,0-7.31L64.28,1.51a5.18,5.18,0,0,1,7.31,0l62.77,62.77a5.18,5.18,0,0,1,0,7.31L71.59,134.36A5.15,5.15,0,0,1,67.93,135.87ZM67.93,2a3.16,3.16,0,0,0-2.24.93L2.93,65.69a3.17,3.17,0,0,0,0,4.49l62.76,62.76a3.17,3.17,0,0,0,4.49,0l62.76-62.76a3.17,3.17,0,0,0,0-4.49L70.18,2.93A3.16,3.16,0,0,0,67.93,2Z"/><path class="b6147f8a-95d6-4872-bec0-356712497af0" d="M68.21,47.2A20.46,20.46,0,1,0,88.67,67.66,20.48,20.48,0,0,0,68.21,47.2ZM84.67,67.66a16.19,16.19,0,0,1-1.33,6.46L70.19,51.33A16.48,16.48,0,0,1,84.67,67.66ZM66.23,51.33,53.07,74.12A16.45,16.45,0,0,1,66.23,51.33Zm2,32.79a16.43,16.43,0,0,1-13.14-6.58H81.34A16.4,16.4,0,0,1,68.21,84.12Z"/><path class="b6147f8a-95d6-4872-bec0-356712497af0" d="M103.73,67.66a35.57,35.57,0,0,0-29.38-35,6.32,6.32,0,0,0-12.29,0A35.5,35.5,0,0,0,35.63,81.82a6.33,6.33,0,0,0,4.82,10.44A6.11,6.11,0,0,0,42.33,92a35.45,35.45,0,0,0,51.75,0,6.23,6.23,0,0,0,1.89.29,6.33,6.33,0,0,0,4.81-10.44A35.22,35.22,0,0,0,103.73,67.66ZM68.21,99.19A31.4,31.4,0,0,1,45.6,89.6a6.32,6.32,0,0,0-5.15-10,6.1,6.1,0,0,0-1.36.15A31.52,31.52,0,0,1,62.4,36.68a6.33,6.33,0,0,0,11.62,0,31.52,31.52,0,0,1,23.3,43.07A6,6,0,0,0,96,79.6a6.32,6.32,0,0,0-5.15,10A31.43,31.43,0,0,1,68.21,99.19Z"/></g></svg>