<svg xmlns="http://www.w3.org/2000/svg" viewBox="0 0 135.87 135.87"><defs><style>.b2891b52-6d5d-4d70-864b-f014e2b18402{fill:#6d4495;}.a9d79242-424e-4d15-aee4-ff8c7de62e1c{fill:#fff;}</style></defs><g id="b1f7fc1b-2b9b-4b0c-b60f-ccbe06c0d4ff" data-name="Ebene 2"><rect class="b2891b52-6d5d-4d70-864b-f014e2b18402" x="19.38" y="19.38" width="97.11" height="97.11" rx="4.17" transform="translate(67.94 -28.14) rotate(45)"/><path class="a9d79242-424e-4d15-aee4-ff8c7de62e1c" d="M134.36,64.28,71.59,1.51a5.18,5.18,0,0,0-7.31,0L1.51,64.28a5.18,5.18,0,0,0,0,7.31l62.77,62.77a5.18,5.18,0,0,0,7.31,0l62.77-62.77A5.18,5.18,0,0,0,134.36,64.28Zm-1.42,5.9L70.18,133a3.27,3.27,0,0,1-4.49,0L2.93,70.18a3.16,3.16,0,0,1,0-4.48l36.6-36.61v0l9.18,41.75a1,1,0,0,0,1.28.71l13.54-4.91a1,1,0,0,1,1.31.87l2.58,50.36a1.11,1.11,0,0,0,2.16.27l22.8-72.58a1,1,0,0,0-1.09-1.26l-17,2.84a1,1,0,0,1-1.09-1.26l9.56-30.29a.25.25,0,0,0,0-.12l50.2,50.2a3.12,3.12,0,0,1,.93,2.24A3.16,3.16,0,0,1,132.94,70.18Z"/></g></svg>