<svg xmlns="http://www.w3.org/2000/svg" viewBox="0 0 135.88 135.87"><defs><style>.bb3383c2-0063-4df7-b00e-4d0f3dc71bd4{fill:#677e7e;}.ac3da97d-62a0-41c8-bd27-9afb3dbac465{fill:#fff;}</style></defs><g id="f955a85f-c433-462a-9435-512872439148" data-name="Ebene 2"><rect class="bb3383c2-0063-4df7-b00e-4d0f3dc71bd4" x="19.38" y="19.38" width="97.11" height="97.11" rx="4.17" transform="translate(67.94 -28.14) rotate(45)"/><path class="ac3da97d-62a0-41c8-bd27-9afb3dbac465" d="M134.36,64.28,71.59,1.51a5.18,5.18,0,0,0-7.31,0L1.51,64.28a5.18,5.18,0,0,0,0,7.31l62.77,62.77a5.18,5.18,0,0,0,7.31,0l62.77-62.77a5.15,5.15,0,0,0,0-7.31ZM133,70.18,105.41,97.71l-1.71-1.94a5.07,5.07,0,0,1-1.22-4,76,76,0,0,0,.2-8A27.79,27.79,0,0,0,101,75.25a9.2,9.2,0,0,1-.49-1.94,3.9,3.9,0,0,1,0-1.27l2.66-11.81c.29-1.09.65-2.45.05-3.32a2.3,2.3,0,0,0-1.36-1.12c-1.9-.62-4.71.29-6.73,4.12l-3.25,7.78a4.65,4.65,0,0,1-3.3,2.17c-1.29,0-3.43-1.45-5.34-5.63L73.75,44.45a3.59,3.59,0,0,0-4.12-2,3.46,3.46,0,0,0-2.22,4.83S74.64,65.79,74.69,66a1.85,1.85,0,0,1-.62,1.8,1.68,1.68,0,0,1-1.68,0c-.4-.35-11.59-11.94-16.7-17.27a3.46,3.46,0,0,0-4.89-.19h0a3.46,3.46,0,0,0-.19,4.9L66.74,72.92a1,1,0,0,1,.24.86l0,.25a.74.74,0,0,1-.74.62H65.9a3.28,3.28,0,0,1-1.73-.46L49.56,65.46a3.46,3.46,0,0,0-4.84.75h0a3.46,3.46,0,0,0,.74,4.84l16,11.34c.48.34.66,1.41.42,1.65a2.18,2.18,0,0,1-1.94.13L47.72,80a3.46,3.46,0,1,0-2.55,6.44l13.2,6.43a17.16,17.16,0,0,1,3.45,2.24c1.74,1.45,4.58,3.92,7.5,6.84,3.59,3.59,10.75,4.81,13.89,5.19a4.56,4.56,0,0,1,2.7,1.32l4.36,4.43L70.18,133a3.26,3.26,0,0,1-4.48,0L2.93,70.18A3.16,3.16,0,0,1,2,67.94a3.12,3.12,0,0,1,.93-2.24L65.7,2.93a3.24,3.24,0,0,1,4.48,0L133,65.7a3.12,3.12,0,0,1,.93,2.24A3.16,3.16,0,0,1,133,70.18Z"/><path class="ac3da97d-62a0-41c8-bd27-9afb3dbac465" d="M87.73,53.51l7.16-17.44s0,0,0,0L89.6,33.81s0,0,0,0L87.67,53.5S87.72,53.55,87.73,53.51Z"/><path class="ac3da97d-62a0-41c8-bd27-9afb3dbac465" d="M77,28l-2.71,8.46a0,0,0,0,1-.06,0L73.35,28a0,0,0,0,1,0,0h3.55S77,28,77,28Z"/><path class="ac3da97d-62a0-41c8-bd27-9afb3dbac465" d="M59.32,41.38l-3.5-9.73s0,0,0,0l-3.25,2.14a0,0,0,0,0,0,0l6.75,7.59S59.33,41.41,59.32,41.38Z"/><path class="ac3da97d-62a0-41c8-bd27-9afb3dbac465" d="M37,76l-8.67-3.92s-.06,0-.06,0l-.7,2.47s0,0,0,.06L37,76.07A0,0,0,0,0,37,76Z"/><path class="ac3da97d-62a0-41c8-bd27-9afb3dbac465" d="M49.08,93.2c-.31.07-6.89,4.21-7.59,4.65a.07.07,0,0,1-.1,0l-2.07-3.23Z"/><path class="ac3da97d-62a0-41c8-bd27-9afb3dbac465" d="M43.61,56.84,31.83,50.32a0,0,0,0,1,0,0l2.32-3.06h0l9.47,9.57S43.63,56.85,43.61,56.84Z"/></g></svg>