<svg xmlns="http://www.w3.org/2000/svg" viewBox="0 0 130.47 130.47"><defs><style>.f3461883-c001-4e88-a32d-4b57e61779dd{fill:#e65500;}.b19429da-2c7f-4d64-adfc-4e4715d76d43{fill:#fff;}</style></defs><g id="f556ee7e-8aef-43e7-a387-b15a2ef9aa2c" data-name="Ebene 2"><circle class="f3461883-c001-4e88-a32d-4b57e61779dd" cx="65.23" cy="65.23" r="63.23"/><path class="b19429da-2c7f-4d64-adfc-4e4715d76d43" d="M65.23,130.47a65.24,65.24,0,1,1,65.24-65.24A65.31,65.31,0,0,1,65.23,130.47ZM65.23,4a61.24,61.24,0,1,0,61.24,61.23A61.3,61.3,0,0,0,65.23,4Z"/><path class="b19429da-2c7f-4d64-adfc-4e4715d76d43" d="M86.1,48.77C78,40.66,73.72,37.68,73.72,21.85a23.06,23.06,0,0,1,.71-6.21.17.17,0,0,0-.17-.21c-6.74.23-20.73,12.39-20.73,23.19,0,21.44,4.84,22.46,4.84,30.11,0,8.9-7.73,9.53-9.9,9.53-8.66,0-12.7-8.88-12.86-21a.32.32,0,0,0-.54-.22c-5.3,5.55-7,16.7-7,27.27,0,11.52,13.12,24.58,22.34,28.28A34.7,34.7,0,0,0,61.06,115c-5.22-2.25-6.67-9.5-2.74-13.44C63,96.9,78,90.72,78,82.12c6.61,6.61,7.69,25.63-4.62,31.72,15-3.5,28.74-12.92,28.74-29.86C102.12,61.83,94.21,56.88,86.1,48.77Z"/></g></svg>