<svg xmlns="http://www.w3.org/2000/svg" viewBox="0 0 130.47 130.47"><defs><style>.b4422de7-1e3a-4224-b86c-93d28b07544d{fill:none;}.fbf99e82-48f7-42a0-bd22-942b39ba9e57{fill:#00d2ff;}.aa7fdb91-84f1-437a-b6f9-e17e737c5e92{fill:#fff;}</style></defs><g id="ae41aab1-5ba1-418a-8569-3307b17f11b4" data-name="Ebene 2"><path class="b4422de7-1e3a-4224-b86c-93d28b07544d" d="M65.23,54.42l-8.81,5.31a.75.75,0,0,0-.37.64v9.72a.76.76,0,0,0,.37.65L65.23,76l8.82-5.3a.76.76,0,0,0,.37-.65V60.37a.75.75,0,0,0-.37-.64Z"/><circle class="fbf99e82-48f7-42a0-bd22-942b39ba9e57" cx="65.23" cy="65.23" r="63.23"/><path class="aa7fdb91-84f1-437a-b6f9-e17e737c5e92" d="M65.23,130.47a65.24,65.24,0,1,1,65.24-65.24A65.31,65.31,0,0,1,65.23,130.47ZM65.23,4a61.24,61.24,0,1,0,61.24,61.23A61.3,61.3,0,0,0,65.23,4Z"/><path class="aa7fdb91-84f1-437a-b6f9-e17e737c5e92" d="M110.09,79a.74.74,0,0,0,.1-1l-1-1.16a.75.75,0,0,0-1-.11l-8.1,6.63a.75.75,0,0,1-.86.06l-6.49-3.83a.75.75,0,0,1,0-1.27l11.6-7.74a.75.75,0,0,0,.21-1l-.83-1.25a.75.75,0,0,0-1-.21L89.24,77a.77.77,0,0,1-.8,0l-10.66-6.3a.77.77,0,0,1-.36-.65V60.39a.77.77,0,0,1,.36-.65l10.66-6.3a.75.75,0,0,1,.8,0l13.41,8.95a.76.76,0,0,0,1-.21l.83-1.25a.75.75,0,0,0-.21-1l-11.6-7.74a.75.75,0,0,1,0-1.27l6.49-3.83a.75.75,0,0,1,.86.06l8.1,6.63a.75.75,0,0,0,1-.11l1-1.16a.75.75,0,0,0-.1-1.06l-6.83-5.58a.75.75,0,0,1,.1-1.22l6.48-3.83a.76.76,0,0,0,.26-1l-.76-1.29a.75.75,0,0,0-1-.27L101.86,42a.75.75,0,0,1-1.12-.52l-1.56-8.93a.76.76,0,0,0-.87-.61l-1.47.26a.75.75,0,0,0-.61.87l1.84,10.6a.72.72,0,0,1-.35.77l-6.44,3.81a.75.75,0,0,1-1.13-.6l-.91-13.45a.73.73,0,0,0-.79-.69l-1.5.1a.74.74,0,0,0-.7.8l1.06,15.71a.75.75,0,0,1-.37.69L76.31,57.13a.76.76,0,0,1-.77,0l-8.79-5.29,0,0,.06-12.5a.73.73,0,0,1,.42-.67L81.14,31.9a.75.75,0,0,0,.35-1l-.66-1.35a.75.75,0,0,0-1-.35L67.89,35a.75.75,0,0,1-1.08-.68l0-7.05a.73.73,0,0,1,.44-.68l9.94-4.4a.75.75,0,0,0,.38-1L77,19.85a.76.76,0,0,0-1-.39l-8.1,3.59a.75.75,0,0,1-1-.69l0-7.55a.75.75,0,0,0-.75-.76H64.33a.75.75,0,0,0-.75.76l0,7.55a.75.75,0,0,1-1,.69l-8.1-3.59a.76.76,0,0,0-1,.39l-.6,1.37a.75.75,0,0,0,.38,1l9.94,4.4a.73.73,0,0,1,.44.68l0,7.05a.75.75,0,0,1-1.08.68L50.64,29.2a.75.75,0,0,0-1,.35L49,30.9a.75.75,0,0,0,.35,1l13.93,6.79a.73.73,0,0,1,.42.67l.06,12.5,0,0-8.79,5.29a.76.76,0,0,1-.77,0L43.53,50.84a.75.75,0,0,1-.37-.69l1.06-15.71a.74.74,0,0,0-.7-.8l-1.5-.1a.75.75,0,0,0-.8.69l-.9,13.45a.75.75,0,0,1-1.13.6l-6.44-3.81a.74.74,0,0,1-.36-.77l1.85-10.6a.75.75,0,0,0-.61-.87L32.15,32a.75.75,0,0,0-.86.61l-1.56,8.93a.75.75,0,0,1-1.12.52l-6.45-3.82a.75.75,0,0,0-1,.27l-.76,1.29a.76.76,0,0,0,.26,1l6.48,3.83a.75.75,0,0,1,.1,1.22l-6.83,5.58a.75.75,0,0,0-.1,1.06l.95,1.16a.75.75,0,0,0,1.05.11l8.1-6.63a.75.75,0,0,1,.86-.06l6.49,3.83a.75.75,0,0,1,0,1.27l-11.6,7.74A.75.75,0,0,0,26,61l.83,1.25a.76.76,0,0,0,1,.21l13.41-8.95a.75.75,0,0,1,.8,0l10.65,6.3a.76.76,0,0,1,.37.65v9.69a.76.76,0,0,1-.37.65L42,77a.77.77,0,0,1-.8,0l-13.41-9a.75.75,0,0,0-1,.21L26,69.52a.75.75,0,0,0,.21,1l11.6,7.74a.75.75,0,0,1,0,1.27L31.24,83.4a.75.75,0,0,1-.86-.06l-8.1-6.63a.75.75,0,0,0-1.05.11L20.28,78a.74.74,0,0,0,.1,1l6.83,5.58a.76.76,0,0,1-.1,1.23l-6.48,3.83a.76.76,0,0,0-.26,1L21.13,92a.75.75,0,0,0,1,.26l6.45-3.81a.75.75,0,0,1,1.12.52l1.56,8.92a.74.74,0,0,0,.86.61l1.48-.25a.75.75,0,0,0,.61-.87l-1.85-10.6a.76.76,0,0,1,.36-.78l6.44-3.8a.75.75,0,0,1,1.13.59l.9,13.45a.75.75,0,0,0,.8.7l1.5-.1a.75.75,0,0,0,.7-.8L43.16,80.32a.77.77,0,0,1,.37-.7l10.63-6.28a.76.76,0,0,1,.77,0l8.79,5.29,0,0-.06,12.51a.75.75,0,0,1-.42.67L49.33,98.57a.75.75,0,0,0-.35,1l.66,1.35a.75.75,0,0,0,1,.35l11.94-5.82a.75.75,0,0,1,1.08.68l0,7.05a.73.73,0,0,1-.44.68l-9.94,4.4a.75.75,0,0,0-.38,1l.6,1.37a.76.76,0,0,0,1,.39l8.1-3.59a.75.75,0,0,1,1,.69l0,7.55a.76.76,0,0,0,.75.76h1.81a.76.76,0,0,0,.75-.76l0-7.55a.75.75,0,0,1,1-.69L76,111a.76.76,0,0,0,1-.39l.6-1.37a.75.75,0,0,0-.38-1l-9.94-4.4a.73.73,0,0,1-.44-.68l0-7.05a.75.75,0,0,1,1.08-.68l11.94,5.82a.75.75,0,0,0,1-.35l.66-1.35a.75.75,0,0,0-.35-1L67.21,91.78a.75.75,0,0,1-.42-.67L66.73,78.6l0,0,8.79-5.29a.76.76,0,0,1,.77,0l10.63,6.28a.77.77,0,0,1,.37.7L86.25,96a.75.75,0,0,0,.7.8l1.5.1a.74.74,0,0,0,.79-.7l.91-13.45a.75.75,0,0,1,1.13-.59L97.72,86a.74.74,0,0,1,.35.78l-1.84,10.6a.75.75,0,0,0,.61.87l1.47.25a.74.74,0,0,0,.87-.61L100.74,89a.75.75,0,0,1,1.12-.52l6.45,3.81a.75.75,0,0,0,1-.26l.76-1.29a.76.76,0,0,0-.26-1l-6.48-3.83a.76.76,0,0,1-.1-1.23ZM74.42,64.48v5.61a.76.76,0,0,1-.37.65L65.23,76l-8.81-5.3a.76.76,0,0,1-.37-.65V60.37a.75.75,0,0,1,.37-.64l8.81-5.31,8.82,5.31a.75.75,0,0,1,.37.64Z"/></g></svg>