<svg xmlns="http://www.w3.org/2000/svg" viewBox="0 0 135.87 135.87"><defs><style>.a949579f-ead9-4408-94a3-8005a60896a9{fill:#a92121;}.afcc4c51-a284-45f7-ac4c-9c8b48445435{fill:#fff;}</style></defs><g id="b3690806-40ce-406c-a990-4c32c938a310" data-name="Ebene 2"><rect class="a949579f-ead9-4408-94a3-8005a60896a9" x="19.38" y="19.38" width="97.11" height="97.11" rx="4.17" transform="translate(67.93 -28.14) rotate(45)"/><path class="afcc4c51-a284-45f7-ac4c-9c8b48445435" d="M67.93,135.87a5.15,5.15,0,0,1-3.65-1.51h0L1.51,71.59a5.18,5.18,0,0,1,0-7.31L64.28,1.51a5.18,5.18,0,0,1,7.31,0l62.77,62.77a5.18,5.18,0,0,1,0,7.31L71.59,134.36A5.16,5.16,0,0,1,67.93,135.87ZM67.93,2a3.19,3.19,0,0,0-2.24.92L2.93,65.69a3.16,3.16,0,0,0,0,4.48l62.76,62.77a3.25,3.25,0,0,0,4.49,0l62.76-62.77a3.12,3.12,0,0,0,.93-2.24,3.16,3.16,0,0,0-.93-2.24L70.18,2.92A3.2,3.2,0,0,0,67.93,2Z"/><path class="afcc4c51-a284-45f7-ac4c-9c8b48445435" d="M97,42.73a.28.28,0,0,0-.15-.24C95.73,42,90,41.58,87,41.58c-6.06,0-7.69,1.27-8.44,1.71a12.94,12.94,0,0,1-1.38.27l-8.1.46-.09.12,3,24.68a5.67,5.67,0,0,1-.92,3.86l-5.49,8.54-1.83,0-25.23-35A1,1,0,0,0,37.18,46a1,1,0,0,0-.23,1.4l24.46,34c-5.15.33-6.41,1.23-7.07,1.42H47.47l0,0c-.28.43-3.37,6-3.37,6a.51.51,0,0,0,0,.4,8.18,8.18,0,0,0,1.53,3c2.68,3.16,11.52,7.52,14.93,7.52h8.28a.16.16,0,0,0,.15-.13l.25-1.68a.2.2,0,0,1,.2-.17l9.3-.1.18.08,2.79,3a.24.24,0,0,0,.26.08l5.5-1.49a43.89,43.89,0,0,0,4.43-1.83l3.69-1.79a.11.11,0,0,0,.07-.12L92.11,69.6S96.92,55.19,97,42.73Z"/><path class="afcc4c51-a284-45f7-ac4c-9c8b48445435" d="M44.21,40.15s-1.76,7-1.71,7l9.94,13.34c.2.13,1.59-7.65,1.63-7.7S44.33,39.91,44.21,40.15Z"/><path class="afcc4c51-a284-45f7-ac4c-9c8b48445435" d="M29.36,50.84s7.2.55,7.22.61L46.09,65.1c.06.23-7.77-.91-7.83-.89S29.11,50.88,29.36,50.84Z"/></g></svg>