<svg xmlns="http://www.w3.org/2000/svg" viewBox="0 0 135.87 135.87"><defs><style>.aff3bdd2-6e86-4b38-b9be-bd0c149b5b4f{fill:#1d1d1b;}.b592db05-e1e7-4475-b5f8-7ef9e41fad14{fill:#fff;}</style></defs><g id="fd28a466-0b2a-4e66-9714-e8e0d7f305c6" data-name="Ebene 2"><rect class="aff3bdd2-6e86-4b38-b9be-bd0c149b5b4f" x="19.38" y="19.68" width="97.11" height="97.11" rx="4.17" transform="translate(68.15 -28.05) rotate(45)"/><path class="b592db05-e1e7-4475-b5f8-7ef9e41fad14" d="M67.93,135.87a5.14,5.14,0,0,1-3.65-1.51L1.51,71.59a5.18,5.18,0,0,1,0-7.31L64.28,1.51a5.18,5.18,0,0,1,7.31,0l62.77,62.77a5.18,5.18,0,0,1,0,7.31L71.59,134.36A5.15,5.15,0,0,1,67.93,135.87ZM65.69,133a3.19,3.19,0,0,0,4.49,0l62.76-62.77a3.16,3.16,0,0,0,0-4.48L70.18,2.93a3.25,3.25,0,0,0-4.49,0L2.93,65.7a3.16,3.16,0,0,0,0,4.48Z"/><path class="b592db05-e1e7-4475-b5f8-7ef9e41fad14" d="M66.38,48.23a13.69,13.69,0,0,1-2.58-.68.1.1,0,0,1-.06-.13l1-2.61a.1.1,0,0,1,.13-.06,12.22,12.22,0,0,0,2,.52,8.76,8.76,0,0,0,4.37-.56.1.1,0,0,1,.13,0l1.07,2.58a.11.11,0,0,1-.06.14A11.77,11.77,0,0,1,66.38,48.23Zm-5.7-2.37a11.22,11.22,0,0,1-4.35-7.39.11.11,0,0,1,.09-.13L59.19,38a.1.1,0,0,1,.11.08,8.25,8.25,0,0,0,3.17,5.42.11.11,0,0,1,0,.14l-1.66,2.24A.1.1,0,0,1,60.68,45.86Zm14.57-.21L73.5,43.48a.12.12,0,0,1,0-.15,8.69,8.69,0,0,0,3.11-5.52.1.1,0,0,1,.11-.09l2.88.34v0a11.74,11.74,0,0,1-4.21,7.56A.12.12,0,0,1,75.25,45.65ZM56.3,35v0a11.84,11.84,0,0,1,4.1-7.59.11.11,0,0,1,.16,0l1.76,2.16a.11.11,0,0,1,0,.15,8.76,8.76,0,0,0-3,5.56c0,.06,0,.09-.11.09Zm20.3,0a8.78,8.78,0,0,0-3.25-5.44.11.11,0,0,1,0-.15L75,27.27a.11.11,0,0,1,.16,0,11.77,11.77,0,0,1,4.38,7.35.11.11,0,0,1-.09.12l-2.76.44A.1.1,0,0,1,76.6,35.07ZM64.48,28.34l-1-2.6a.12.12,0,0,1,.06-.14,12.94,12.94,0,0,1,5.91-.74,11.13,11.13,0,0,1,2.63.65.1.1,0,0,1,.06.14l-1,2.6a.12.12,0,0,1-.14.06,9.27,9.27,0,0,0-1.9-.47,10,10,0,0,0-4.47.55A.11.11,0,0,1,64.48,28.34Z"/><path class="b592db05-e1e7-4475-b5f8-7ef9e41fad14" d="M67.9,105.25a33.76,33.76,0,0,1-4.24-.23.1.1,0,0,1-.07-.09l.37-2.82A.07.07,0,0,1,64,102a34.84,34.84,0,0,0,3.89.21c1.19,0,2.44,0,3.68-.06a.08.08,0,0,1,.08.07l.15,2.84a.07.07,0,0,1-.08.08C70.44,105.25,69.13,105.25,67.9,105.25ZM75,104.8,74.54,102a.08.08,0,0,1,.06-.09,13.82,13.82,0,0,0,3.79-1.09,6.29,6.29,0,0,0,2.25-1.61.06.06,0,0,1,.1,0L83,101a.09.09,0,0,1,0,.12,9.38,9.38,0,0,1-3.28,2.43,17.07,17.07,0,0,1-4.62,1.33A.08.08,0,0,1,75,104.8Zm-14.5-.5a.07.07,0,0,1-.09.06,22.58,22.58,0,0,1-4.12-1.59,10.74,10.74,0,0,1-3.55-2.46.07.07,0,0,1,0-.11l2.2-1.8a.07.07,0,0,1,.1,0,9,9,0,0,0,2.58,1.68,19.77,19.77,0,0,0,3.57,1.38.07.07,0,0,1,.05.09Zm20.77-6.86a1.78,1.78,0,0,0-.07-.39l-1.89-7a.08.08,0,0,1,.06-.1l2.74-.74a.09.09,0,0,1,.1.06l1.89,7a5.24,5.24,0,0,1,.16.88Zm-26.55-.59-2.74-.74a.07.07,0,0,1-.06-.09l2-7.58a.07.07,0,0,1,.09,0l2.75.74a.08.08,0,0,1,.06.09l-2,7.58A.08.08,0,0,1,54.68,96.85ZM78.45,87l-2-7.57a.08.08,0,0,1,.06-.1l2.75-.74a.07.07,0,0,1,.09.06l2,7.57a.08.08,0,0,1-.06.1L78.55,87A.09.09,0,0,1,78.45,87Zm-20.91-.75-2.75-.74a.07.07,0,0,1,0-.09l2-7.58s.06-.07.1,0l2.75.73a.09.09,0,0,1,.05.1l-2,7.57A.07.07,0,0,1,57.54,86.23ZM75.6,76.36l-2-7.58a.07.07,0,0,1,0-.09L76.36,68a.09.09,0,0,1,.1,0l2,7.58a.07.07,0,0,1,0,.09l-2.75.74A.07.07,0,0,1,75.6,76.36Zm-15.2-.75-2.75-.74a.09.09,0,0,1-.06-.1l2-7.57a.08.08,0,0,1,.1-.06l2.74.74a.09.09,0,0,1,.06.1l-2,7.57A.08.08,0,0,1,60.4,75.61Zm12.34-9.87-2-7.58a.1.1,0,0,1,.06-.1l2.74-.73a.07.07,0,0,1,.1.05l2,7.58a.08.08,0,0,1-.06.09l-2.75.74A.07.07,0,0,1,72.74,65.74ZM63.25,65l-2.74-.73a.08.08,0,0,1-.06-.1l2-7.57a.07.07,0,0,1,.09-.06l2.75.74a.07.07,0,0,1,0,.09l-2,7.58A.07.07,0,0,1,63.25,65ZM70,55.65a.07.07,0,0,1-.09,0,2.88,2.88,0,0,0-2.28-.88,2.83,2.83,0,0,0-2.15.78.07.07,0,0,1-.09,0L63,54a.08.08,0,0,1,0-.11,5.55,5.55,0,0,1,4.68-2.17A5.71,5.71,0,0,1,72.42,54a.1.1,0,0,1,0,.12Z"/></g></svg>