<svg xmlns="http://www.w3.org/2000/svg" viewBox="0 0 130.47 130.47"><defs><style>.b5f660d0-95cc-4b37-9591-68f1e38aff3b{fill:#ffb900;}.a7c59456-4892-4ab9-b407-b37c602e84aa{fill:#fff;}</style></defs><g id="e006df01-615a-4706-a30e-b38e80b8d092" data-name="Ebene 2"><circle class="b5f660d0-95cc-4b37-9591-68f1e38aff3b" cx="65.23" cy="65.23" r="63.23"/><path class="a7c59456-4892-4ab9-b407-b37c602e84aa" d="M65.23,130.47a65.24,65.24,0,1,1,65.24-65.24A65.31,65.31,0,0,1,65.23,130.47ZM65.23,4a61.24,61.24,0,1,0,61.24,61.23A61.3,61.3,0,0,0,65.23,4Z"/><path class="a7c59456-4892-4ab9-b407-b37c602e84aa" d="M117.16,65.22,94.79,53.63s0,0,0,0l7.36-25.27s0,0,0,0L77.91,36.74s0,0,0,0l-12.66-24h0l-12.65,24s0,0,0,0L28.35,28.32s0,0,0,0l7.37,25.27s0,0,0,0L13.31,65.22s0,0,0,0L35.68,76.84s0,0,0,0l-7.37,25.27s0,0,0,0l24.21-8.42h0l12.65,24h0l12.66-24h0l24.21,8.42s0,0,0,0L94.78,76.86s0,0,0,0l22.37-11.59S117.17,65.22,117.16,65.22Zm-9.69,0L93.31,73.88a0,0,0,0,1,0,0L91.92,67s0,0,0,0l4-1.73a0,0,0,0,0,0,0l-4-1.72s0,0,0,0l1.36-6.87a0,0,0,0,1,0,0l14.16,8.63S107.48,65.24,107.47,65.25ZM90.54,74.8l-6.1,4.14s0,0,0,0L81.06,71.6s0,0,0,0l7.59-3.2s0,0,0,0l1.87,6.39S90.55,74.8,90.54,74.8ZM49.41,71.6l-3.36,7.34s0,0,0,0L39.92,74.8v0l1.87-6.39s0,0,0,0l7.59,3.2S49.41,71.59,49.41,71.6ZM39.92,55.67,46,51.53h0l3.36,7.34s0,0,0,0l-7.59,3.2s0,0,0,0l-1.87-6.39Zm41.14,3.2,3.36-7.34h0l6.1,4.14s0,0,0,0l-1.87,6.39s0,0,0,0l-7.59-3.2S81.06,58.88,81.06,58.87ZM94.88,35.6,91.22,50.7h0l-5.13-2.5s0,0,0,0L89,41.42s0,0,0,0l-7,3.24h0l-2.24-4.7s0,0,0,0l15.1-4.33A0,0,0,0,1,94.88,35.6ZM78.94,46.05,71.6,49.4h0l-3.21-7.58s0,0,0,0l6.4-1.87h0L78.94,46S79,46.05,78.94,46.05ZM65.25,22.93l8.54,14.13s0,0,0,0l-6.42,2.2h0l-2.1-4.86h0l-2.1,4.86h0l-6.43-2.2s0,0,0,0l8.54-14.13Zm-9.56,17,6.4,1.87s0,0,0,0l-3.21,7.58h0l-7.34-3.35s0,0,0,0l4.14-6.11ZM35.61,35.58,50.7,39.91a0,0,0,0,1,0,0l-2.24,4.7h0l-7-3.24s0,0,0,0l2.94,6.77s0,0,0,0l-5.13,2.5s0,0,0,0L35.59,35.6A0,0,0,0,1,35.61,35.58ZM23,65.22l14.16-8.63a0,0,0,0,1,0,0l1.36,6.87s0,0,0,0l-4,1.72a0,0,0,0,0,0,0l4,1.73s0,0,0,0l-1.36,6.87a0,0,0,0,1,0,0L23,65.25S23,65.22,23,65.22ZM35.59,94.87l3.66-15.1s0,0,0,0l5.13,2.51s0,0,0,0l-2.94,6.77s0,0,0,0l7-3.24h0l2.24,4.7,0,0L35.61,94.89A0,0,0,0,1,35.59,94.87ZM51.53,84.42l7.34-3.35s0,0,0,0l3.21,7.58s0,0,0,0l-6.4,1.87h0l-4.14-6.1S51.52,84.42,51.53,84.42Zm13.69,23.12L56.68,93.41s0,0,0,0l6.43-2.2s0,0,0,0l2.1,4.86h0l2.1-4.86s0,0,0,0l6.42,2.2s0,0,0,0l-8.54,14.13Zm9.56-17-6.4-1.87s0,0,0,0l3.21-7.58s0,0,0,0l7.34,3.35s0,0,0,0l-4.14,6.1Zm20.08,4.34-15.1-4.33s0,0,0,0L82,85.84h0l7,3.24s0,0,0,0l-2.94-6.77s0,0,0,0l5.13-2.51a0,0,0,0,1,0,0l3.66,15.1A0,0,0,0,1,94.86,94.89Z"/></g></svg>