<svg xmlns="http://www.w3.org/2000/svg" viewBox="0 0 98.8 72.95"><g id="ba97b1d1-c260-49b3-a431-0127aa50f197" data-name="Ebene 2"><path d="M21.52,72.93,0,55a.09.09,0,0,1,0-.13L21.36,36.71l.05,0,11.72-.19a.08.08,0,0,1,.08.1l-1.27,4.86a.08.08,0,0,1-.08.06l-8.6.16-.05,0L7.79,54.82a.08.08,0,0,0,0,.12l15.54,13,.05,0,35.2-.16.05,0L74.05,54.65a.09.09,0,0,0,0-.13l-15.54-13s0,0,0,0l-4.91,0a.08.08,0,0,1-.07-.12l2.44-4.85a.08.08,0,0,1,.07,0l4.28,0,0,0,21.49,18a.07.07,0,0,1,0,.12L60.48,72.75s0,0,0,0L21.57,73Z"/><path d="M98.75,16.53,70.19,0a.1.1,0,0,0-.14.08v10a.09.09,0,0,1-.09.09C64.62,10.5,55.77,12.69,46.07,22c-8.25,7.89-11,17.85-11.87,24.84a.07.07,0,0,1-.06.07c-5.25,1.22-8.88,3.79-8.88,6.78,0,4.15,7,7.52,15.66,7.52s15.66-3.37,15.66-7.52c0-2.86-3.31-5.34-8.18-6.61a.09.09,0,0,1-.07-.1A26.55,26.55,0,0,1,55.75,32.1c6.21-6,11.36-7.51,14.19-7.88a.09.09,0,0,1,.1.09v8.77a.09.09,0,0,0,.14.08L98.75,16.69A.09.09,0,0,0,98.75,16.53Z"/></g></svg>