<svg xmlns="http://www.w3.org/2000/svg" viewBox="0 0 99.26 76.66"><g id="ff2561a3-880a-4b73-9914-afb4aa1073b0" data-name="Ebene 2"><path d="M88.78,32.08c-3.18,3.08-12.34,4.34-15.26,4.67a.26.26,0,0,1-.19-.46C77.53,33.05,98.55,16,99.26.34A.33.33,0,0,0,98.69.1c-15.62,15.13-38.22,17.66-39,17.75a0,0,0,0,0,0,0c-.14.94-4.52,30.88-6.9,33.39h0c-2.14-1.11-3-1.52-3.06-1.57s0,0,0,0-.92.46-3.06,1.57h-.05c-2.38-2.51-6.76-32.45-6.9-33.39a0,0,0,0,0,0,0c-.8-.09-23.4-2.62-39-17.75A.33.33,0,0,0,0,.34C.71,16,21.73,33.05,25.93,36.29a.26.26,0,0,1-.19.46c-2.92-.33-12.08-1.59-15.26-4.67a.3.3,0,0,0-.52.23c.74,10.92,18,19.41,21.09,20.86a.26.26,0,0,1,0,.47c-1.16.53-5.94,1.42-12.32,1.52a.49.49,0,0,0-.32.86c7.28,6.52,16.71,6.55,17.57,6.54l.09.06,1.55,6.24,0,0,12,7.75h0l12-7.75,0,0,1.56-6.24.08-.06c.86,0,10.29,0,17.57-6.54a.49.49,0,0,0-.32-.86c-6.38-.1-11.16-1-12.32-1.52a.26.26,0,0,1,0-.47c3.11-1.45,20.35-9.94,21.09-20.86A.3.3,0,0,0,88.78,32.08Z"/></g></svg>