<svg xmlns="http://www.w3.org/2000/svg" viewBox="0 0 98.83 81.01"><g id="f1f4a2c6-c506-4661-a02e-b73f8dbdcc55" data-name="Ebene 2"><path d="M59.07,80.86V68.55a.21.21,0,0,1,0-.11L70.5,56.79a.13.13,0,0,1,.1,0c1,0,14.08.29,21.57,7.78,7.22,7.21,6.72,15.22,6.61,16.35a.15.15,0,0,1-.15.13H59.22A.15.15,0,0,1,59.07,80.86Z"/><path d="M26.87,81H52.33a.15.15,0,0,0,.15-.15V65.78a.15.15,0,0,1,0-.11l14.95-15.6a.15.15,0,0,0,0-.11V17.42a.14.14,0,0,0-.21-.13L39.8,30.19a.14.14,0,0,0-.08.17c.29,1.1,2.68,9.92,3.79,12s3.91,9.15,4.31,10.16a.16.16,0,0,1-.07.18l-3.84,2.11a.15.15,0,0,1-.2-.06c-.68-1.36-6.26-12.71-8.24-19.52s-2.81-20-2.9-21.49a.14.14,0,0,0-.13-.14C30.75,13.54,12.81,12.36.26,0A.16.16,0,0,0,0,.15c.33,13,17.75,26.46,20.78,28.71a.14.14,0,0,1-.1.26c-2.13-.26-9.83-1.36-12.54-3.65a.15.15,0,0,0-.25.12C8.3,33.86,23.18,41.86,25.43,43a.15.15,0,0,1,0,.27c-.74.25-3.16.79-10.21.8a.18.18,0,0,0-.17.17c.3,4.64,12.84,5.77,14.24,5.89a.13.13,0,0,1,.14.13l.05.91a5.91,5.91,0,0,0,3.16,4.86h0a.14.14,0,0,1,.08.13L32.51,62A33,33,0,0,1,29.4,75.09L26.73,80.8A.15.15,0,0,0,26.87,81Z"/></g></svg>