<svg id="bef570f5-6ff8-48b0-85e7-1a0b6c2c3782" data-name="Ebene 2" xmlns="http://www.w3.org/2000/svg" viewBox="0 0 135.87 135.87"><defs><style>.a30e34a2-094d-4da6-9c7f-a860204c3710{fill:#7a6047;}.f60ee15a-8b3f-4dcc-b954-59eeb0c22189{fill:#fff;}</style></defs><rect class="a30e34a2-094d-4da6-9c7f-a860204c3710" x="19.38" y="19.38" width="97.11" height="97.11" rx="4.17" transform="translate(67.94 -28.14) rotate(45)"/><path class="f60ee15a-8b3f-4dcc-b954-59eeb0c22189" d="M67.93,135.87a5.14,5.14,0,0,1-3.65-1.51L1.51,71.59a5.18,5.18,0,0,1,0-7.31L64.28,1.51a5.18,5.18,0,0,1,7.31,0l62.77,62.77a5.18,5.18,0,0,1,0,7.31L71.59,134.36A5.15,5.15,0,0,1,67.93,135.87ZM67.93,2a3.16,3.16,0,0,0-2.24.93L2.93,65.7a3.16,3.16,0,0,0,0,4.48l62.76,62.76a3.17,3.17,0,0,0,4.49,0l62.76-62.76a3.16,3.16,0,0,0,0-4.48L70.18,2.93A3.16,3.16,0,0,0,67.93,2Z"/><path class="f60ee15a-8b3f-4dcc-b954-59eeb0c22189" d="M65.48,93.85l-7,4c0,10.78,4.49,11.87,4.49,11.87l8.13-4a.28.28,0,0,0,.16-.26c0-1.16.12-7.65-2.1-9.87S65.48,93.85,65.48,93.85Z"/><path class="f60ee15a-8b3f-4dcc-b954-59eeb0c22189" d="M74.19,27.72a.47.47,0,0,0-.57-.09L53.4,38a.5.5,0,0,0-.27.48c.13,1.68.31,10.35.31,13.85,0,.91-.43,1.45-.83,1.45-.1,0-.14,1.08-.14,1.19a8.49,8.49,0,0,0,0,1.52.54.54,0,0,0,.73.39c3.34-1.27,10-5.61,11.24-6.45a.48.48,0,0,0,.22-.41V39.11a.28.28,0,0,1,0-.09,2.92,2.92,0,0,1,3.11-2.33,2.72,2.72,0,0,1,3,2.38l1.65,16.85a.54.54,0,0,1-.18.46L56.29,70.31a.54.54,0,0,0-.16.35c0,1.65-.18,12.79,1.59,14.56s3.78,4.38,5.1,4.6a.45.45,0,0,0,.33-.09l9.12-6.08a.48.48,0,0,0,.22-.41V81.38a.48.48,0,0,0-.35-.47c-1.1-.31-4.4-1.56-4.4-5.18a6.89,6.89,0,0,1,3.88-6,.28.28,0,0,0,.14-.1L83.17,57.54a.52.52,0,0,0,.14-.33c0-2.05.07-20-.8-20.91S75.52,29.09,74.19,27.72Z"/></svg>