<svg xmlns="http://www.w3.org/2000/svg" viewBox="0 0 130.47 130.47"><defs><style>.f659bd23-f6b6-440c-a09c-5335e2368e92{fill:#72af00;}.af171e32-1de6-41e9-a3c0-6b34e4fafcbf{fill:#fff;}</style></defs><g id="a29f86c2-4e6f-4a5b-9593-5781ece248ba" data-name="Ebene 2"><circle class="f659bd23-f6b6-440c-a09c-5335e2368e92" cx="65.23" cy="65.23" r="63.23"/><path class="af171e32-1de6-41e9-a3c0-6b34e4fafcbf" d="M65.23,130.47a65.24,65.24,0,1,1,65.24-65.24A65.31,65.31,0,0,1,65.23,130.47ZM65.23,4a61.24,61.24,0,1,0,61.24,61.23A61.3,61.3,0,0,0,65.23,4Z"/><path class="af171e32-1de6-41e9-a3c0-6b34e4fafcbf" d="M99.55,27.79C90.2,39.88,54.68,32.24,38.23,49.15,22.24,65,26.72,83.49,41.46,89.07l-.13-1.61C41.1,77.45,53.4,66,64.27,61.27c.27-.12.71-.33,1-.48,4.28-2.41,17.16-10.37,23.12-15.64a.46.46,0,0,1,.73.51c-4.83,13.57-36.55,26-42,42.42h0c-.79,4.45-3.38,18.86-.07,22.59,3.7,3.69,9.56-3.3,8.11-3.3s-2.89-12.2-2.89-12.2L52,93.78c26.63,12.08,43.51-8.13,48.11-22.08,0,0,2.17-3.56,2.17-25.71S99.55,27.79,99.55,27.79Z"/></g></svg>