<svg xmlns="http://www.w3.org/2000/svg" viewBox="0 0 135.87 135.87"><defs><style>.ae1b8782-e1db-4df2-869f-e3a35b58f2ac{fill:#dc9c56;}.be4ebf95-87ed-4bc3-977f-15c3f28cff08{fill:#fff;}</style></defs><g id="a84b0245-f934-43af-81a0-ae5f225628e6" data-name="Ebene 2"><rect class="ae1b8782-e1db-4df2-869f-e3a35b58f2ac" x="19.38" y="19.38" width="97.11" height="97.11" rx="4.17" transform="translate(67.94 -28.14) rotate(45)"/><path class="be4ebf95-87ed-4bc3-977f-15c3f28cff08" d="M67.93,135.87a5.14,5.14,0,0,1-3.65-1.51L1.51,71.59a5.18,5.18,0,0,1,0-7.31L64.28,1.51a5.18,5.18,0,0,1,7.31,0l62.77,62.77a5.18,5.18,0,0,1,0,7.31L71.59,134.36A5.15,5.15,0,0,1,67.93,135.87Zm-2.24-2.93a3.17,3.17,0,0,0,4.49,0l62.76-62.76a3.17,3.17,0,0,0,0-4.49L70.18,2.93a3.25,3.25,0,0,0-4.49,0L2.93,65.69a3.17,3.17,0,0,0,0,4.49Z"/><path class="be4ebf95-87ed-4bc3-977f-15c3f28cff08" d="M122.47,67.57a.14.14,0,0,1,0,.25c-2.34.9-17.06,6.6-18.88,6.6S99.93,71,99.67,70.53a.12.12,0,0,0-.12-.07H16.65c-.09,0-1.77-.26-1.77-2.77s1.68-2.75,1.77-2.76h82.9a.13.13,0,0,0,.12-.06c.26-.51,2.09-3.89,3.92-3.89S120.13,66.67,122.47,67.57Z"/><path class="be4ebf95-87ed-4bc3-977f-15c3f28cff08" d="M64.45,54.5a.15.15,0,0,0,.2.06c.5-.33,2.69-1.5,7.89-1.5,5.49,0,8.28,6.57,8.73,7.73a.14.14,0,0,0,.22.06l7.09-5.5a.15.15,0,0,0-.07-.26l-5.28-.62a.15.15,0,0,1-.1-.22l5.39-9.5a.15.15,0,0,0-.21-.19L79.39,51.2a.14.14,0,0,1-.23-.11L79.26,24A.14.14,0,0,0,79,23.9l-8.4,21.34a.14.14,0,0,1-.26,0l-4.84-9.76a.14.14,0,0,0-.27.06L65,46.24a.14.14,0,0,1-.18.13l-5.61-1.81a.15.15,0,0,0-.17.21Z"/><path class="be4ebf95-87ed-4bc3-977f-15c3f28cff08" d="M64.45,80.89a.15.15,0,0,1,.2-.06c.5.33,2.69,1.5,7.89,1.5,5.49,0,8.28-6.57,8.73-7.74a.14.14,0,0,1,.22,0L88.58,80a.15.15,0,0,1-.07.26l-5.28.62a.15.15,0,0,0-.1.22l5.39,9.5a.14.14,0,0,1-.21.18l-8.92-6.64a.15.15,0,0,0-.23.12l.1,27.13a.15.15,0,0,1-.28.06l-8.4-21.34a.14.14,0,0,0-.26,0L65.48,99.9a.14.14,0,0,1-.27-.06L65,89.15a.14.14,0,0,0-.18-.13l-5.61,1.8a.14.14,0,0,1-.17-.2Z"/></g></svg>