<svg xmlns="http://www.w3.org/2000/svg" viewBox="0 0 135.87 135.87"><defs><style>.b9f3dd8a-348c-4ecb-b9c9-2a8ca386e81e{fill:#737850;}.a8c765be-158c-4905-b600-55b6e47573bd{fill:#fff;}</style></defs><g id="b0699d7f-3fdd-4133-a98d-7f4a80baa17e" data-name="Ebene 2"><rect class="b9f3dd8a-348c-4ecb-b9c9-2a8ca386e81e" x="19.38" y="19.38" width="97.11" height="97.11" rx="4.17" transform="translate(67.93 -28.14) rotate(45)"/><path class="a8c765be-158c-4905-b600-55b6e47573bd" d="M67.94,135.87a5.15,5.15,0,0,1-3.66-1.51L1.51,71.59a5.18,5.18,0,0,1,0-7.31L64.28,1.51a5.18,5.18,0,0,1,7.31,0l62.77,62.77a5.18,5.18,0,0,1,0,7.31L71.59,134.36A5.14,5.14,0,0,1,67.94,135.87ZM65.7,133a3.18,3.18,0,0,0,4.48,0L133,70.18a3.18,3.18,0,0,0,0-4.48L70.18,2.93a3.16,3.16,0,0,0-4.48,0L2.93,65.7a3.16,3.16,0,0,0,0,4.48Z" transform="translate(0 0)"/><path class="a8c765be-158c-4905-b600-55b6e47573bd" d="M68.62,38.89c-21.23,0-42.2,5.54-42.2,28.88C26.42,89,45,88.41,48.34,88.13a.4.4,0,0,1,.43.46l-1,6.67a1.48,1.48,0,0,0,.93,1.59c2.61,1,9.74,2.17,19.87,2.17s17.16-1.12,19.81-2.15a1.57,1.57,0,0,0,1-1.68l-1-6.6a.4.4,0,0,1,.43-.46c3.29.28,21.92.92,21.92-20.36C110.82,44.43,89.85,38.89,68.62,38.89Zm-8.2,36.52a2.09,2.09,0,0,1-2.71-.3l-4.78-4.77a2.06,2.06,0,0,0-2.91,0l-5.3,5.3a2.09,2.09,0,0,1-2.71.3,2,2,0,0,1-.22-3l5.41-5.41a2.06,2.06,0,0,0,0-2.91l-4.71-4.7a2.11,2.11,0,0,1-.3-2.72,2,2,0,0,1,3-.22L50,61.77a2,2,0,0,0,2.91,0l4.45-4.44a2.11,2.11,0,0,1,2.71-.3,2,2,0,0,1,.22,3L55.76,64.6a2.06,2.06,0,0,0,0,2.91l4.88,4.88A2,2,0,0,1,60.42,75.41Zm12.32,9.37a.31.31,0,0,1-.48.26,7.44,7.44,0,0,0-3.64-.65,17,17,0,0,0-5,.58.37.37,0,0,1-.48-.39c.26-2.42,1.49-11.4,5.48-11.4S72.77,82.23,72.74,84.78Zm22.5-8.84a2.1,2.1,0,0,1-2.72-.3l-5.3-5.3a2.06,2.06,0,0,0-2.91,0l-4.77,4.77a2.1,2.1,0,0,1-2.72.3,2,2,0,0,1-.22-3l4.88-4.88a2.06,2.06,0,0,0,0-2.91L77,60.16a2.1,2.1,0,0,1-.3-2.72,2,2,0,0,1,3-.22l4.55,4.55a2,2,0,0,0,2.91,0l4.71-4.7a2.09,2.09,0,0,1,2.71-.3,2,2,0,0,1,.22,3L90.05,64.6a2,2,0,0,0,0,2.91l5.41,5.41A2,2,0,0,1,95.24,75.94Z" transform="translate(0 0)"/></g></svg>