<svg xmlns="http://www.w3.org/2000/svg" viewBox="0 0 135.87 135.87"><defs><style>.a959bd0a-fc7c-4751-a9b2-2f5ba01f60eb{fill:gray;}.ae6fbea9-1457-4d9f-9e67-54cf6f657991{fill:#fff;}</style></defs><g id="a87fd3fa-c737-4e30-8a24-8d8e3a1986e6" data-name="Ebene 2"><rect class="a959bd0a-fc7c-4751-a9b2-2f5ba01f60eb" x="19.38" y="19.38" width="97.11" height="97.11" rx="4.17" transform="translate(67.94 -28.14) rotate(45)"/><path class="ae6fbea9-1457-4d9f-9e67-54cf6f657991" d="M67.93,135.87a5.11,5.11,0,0,1-3.65-1.51h0L1.51,71.59a5.18,5.18,0,0,1,0-7.31L64.28,1.51a5.18,5.18,0,0,1,7.31,0l62.77,62.77a5.18,5.18,0,0,1,0,7.31L71.59,134.36A5.12,5.12,0,0,1,67.93,135.87ZM67.93,2a3.16,3.16,0,0,0-2.24.93L2.93,65.7a3.16,3.16,0,0,0,0,4.48L65.69,133a3.27,3.27,0,0,0,4.49,0l62.76-62.77a3.16,3.16,0,0,0,.93-2.24,3.12,3.12,0,0,0-.93-2.24L70.18,2.93A3.16,3.16,0,0,0,67.93,2Z"/><path class="ae6fbea9-1457-4d9f-9e67-54cf6f657991" d="M102.87,58a.3.3,0,0,0-.27-.44H87.79a.73.73,0,0,0-.62.34l-.93,1.5a16.22,16.22,0,0,0,0,17.08l1,1.57a.57.57,0,0,0,.49.27h14.83a.34.34,0,0,0,.3-.5l-1.61-3a14.52,14.52,0,0,1,0-13.84Z"/><path class="ae6fbea9-1457-4d9f-9e67-54cf6f657991" d="M79.81,58a.3.3,0,0,0-.27-.44l-29,0V44.32a.19.19,0,0,0-.29-.15L17.26,67.83a.18.18,0,0,0,0,.29l33,23.65a.19.19,0,0,0,.29-.15V78.33l29,0a.34.34,0,0,0,.3-.5l-1.6-3a14.52,14.52,0,0,1,0-13.84Z"/><path class="ae6fbea9-1457-4d9f-9e67-54cf6f657991" d="M118.77,58a.3.3,0,0,0-.27-.44H112a.73.73,0,0,0-.62.34l-.92,1.5a16.22,16.22,0,0,0,0,17.08l1,1.57a.57.57,0,0,0,.49.27h6.54a.34.34,0,0,0,.3-.5l-1.61-3a14.52,14.52,0,0,1,0-13.84Z"/></g></svg>