<svg xmlns="http://www.w3.org/2000/svg" viewBox="0 0 135.87 135.87"><defs><style>.b47dde68-62d4-44da-aa9d-d0395a712209{fill:gray;}.f13a35b2-f742-490d-bd63-19ef94814719{fill:#fff;}</style></defs><g id="a29890cb-c589-40a5-bda5-e52ffd6b0d76" data-name="Ebene 2"><rect class="b47dde68-62d4-44da-aa9d-d0395a712209" x="19.38" y="19.38" width="97.11" height="97.11" rx="4.17" transform="translate(164.01 67.94) rotate(135)"/><path class="f13a35b2-f742-490d-bd63-19ef94814719" d="M64.28,134.36,1.51,71.59a5.18,5.18,0,0,1,0-7.31L64.28,1.51a5.18,5.18,0,0,1,7.31,0l62.77,62.77a5.18,5.18,0,0,1,0,7.31L71.59,134.36h0a5.18,5.18,0,0,1-7.31,0ZM65.69,2.93,2.93,65.7A3.12,3.12,0,0,0,2,67.94a3.16,3.16,0,0,0,.93,2.24L65.69,133a3.26,3.26,0,0,0,4.48,0l62.77-62.77a3.16,3.16,0,0,0,0-4.48L70.17,2.93A3.12,3.12,0,0,0,67.93,2,3.16,3.16,0,0,0,65.69,2.93Z"/><path class="f13a35b2-f742-490d-bd63-19ef94814719" d="M33,58a.3.3,0,0,1,.27-.44H48.08a.73.73,0,0,1,.62.34l.92,1.5a16.22,16.22,0,0,1,0,17.08l-1,1.57a.57.57,0,0,1-.49.27H33.33a.34.34,0,0,1-.3-.5l1.61-3a14.52,14.52,0,0,0,0-13.84Z"/><path class="f13a35b2-f742-490d-bd63-19ef94814719" d="M56.06,58a.3.3,0,0,1,.27-.44l29,0V44.32a.19.19,0,0,1,.29-.15l33,23.66a.18.18,0,0,1,0,.29L85.66,91.77a.19.19,0,0,1-.29-.15V78.33l-29,0a.34.34,0,0,1-.3-.5l1.61-3A14.52,14.52,0,0,0,57.7,61Z"/><path class="f13a35b2-f742-490d-bd63-19ef94814719" d="M17.1,58a.3.3,0,0,1,.27-.44h6.52a.75.75,0,0,1,.62.34l.92,1.5a16.22,16.22,0,0,1,0,17.08l-1,1.57a.57.57,0,0,1-.49.27H17.43a.34.34,0,0,1-.3-.5l1.61-3a14.52,14.52,0,0,0,0-13.84Z"/></g></svg>