<svg xmlns="http://www.w3.org/2000/svg" viewBox="0 0 86.35 101.96"><g id="fb962255-2495-424b-a440-d255701e66c1" data-name="Ebene 2"><path d="M71.87,96.74C70.16,95,73.64,75.2,73.64,69.53c0-5.51-13.77-26.9-14.57-28.15l0-.1,11.54-8.21.13.06,1.13,7.17a.08.08,0,0,0,.15,0l14.3-23.15a.07.07,0,0,0-.07-.1L59.69,22.92a.08.08,0,0,0,0,.15l6.4,3.44v.14L54.52,34.82h-.11c-.91-1.17-16.55-21.24-21.74-23.06C27.32,9.88,7.49,6.83,6.44,4.65,6.13,4,3.83.27,3.65.08s-.92.13-.92.13A1.56,1.56,0,0,0,1.91,2l.74,6.45h0L8.58,58.84l0,.07-8.47,6a.18.18,0,0,0,0,.29l9.69,6.11.06.09,2.56,11.16a.18.18,0,0,0,.28.1l8.48-6h.08L66.78,98.93h0l6.09,2.74a1.58,1.58,0,0,0,2-.17s.3-.42.16-.74A45.82,45.82,0,0,0,71.87,96.74ZM6.44,9.77a0,0,0,0,1,.06,0c.8.35,7.41,3.26,10.71,3.94a28.21,28.21,0,0,1,4.26,1.16c3.76,1.39,9.61,3.85,11.74,6.77.6.83,1.21,1.64,1.88,2.41,3.8,4.38,12.53,14.21,13.29,15.07a.07.07,0,0,1,0,.11l-26,18.38a.09.09,0,0,1-.09,0l-6.18-4a.07.07,0,0,0-.09,0l-3.54,2.51a.07.07,0,0,1-.12,0ZM66.91,94.89s0,.06-.08,0L25.09,74.05a.08.08,0,0,1,0-.14l3.55-2.51a.08.08,0,0,0,0-.08L27,64.17a.07.07,0,0,1,0-.08L53,45.64s.09,0,.11,0c.56,1,6.95,12.49,9.82,17.53.5.89,1.07,1.73,1.65,2.57,2,3,2.44,9.31,2.51,13.32a29.73,29.73,0,0,1-.31,4.41C66.28,86.82,66.84,94,66.91,94.89Z"/></g></svg>