<svg xmlns="http://www.w3.org/2000/svg" viewBox="0 0 86.21 100.55"><g id="a1e91339-50ce-44ff-9863-e163eaeecbb3" data-name="Ebene 2"><path d="M77.23,50.3a1.07,1.07,0,0,0-.75-.65L43.46,42a.59.59,0,0,0-.7.74c.83,2.8,3.14,11.07,3.14,16,0,6.07-2.11,13.85-10.15,21.89-5.67,5.67-15,6.2-15,6.2l3.42,13.66a.09.09,0,0,0,.07.06H48.56a.12.12,0,0,0,.12-.11c.16-1.16,1.58-11.7,2.64-13.44a.15.15,0,0,1,.25,0c1.16,1.78,3.22,12.44,3.41,13.48a.11.11,0,0,0,.11.08H72a.09.09,0,0,0,.09-.1l-2.46-25.1a1.08,1.08,0,0,1,.19-.7L80.7,59.73a.45.45,0,0,0,.06-.42Z" transform="translate(0 0)" /><path d="M41,57.16c0-6.6-8.27-14.32-9.37-15.32a.18.18,0,0,1,0-.24l2.18-3.09a.31.31,0,0,1,.26-.14c1.79-.06,17.64-.81,17.64-11.08V18.37a.15.15,0,0,0-.17-.15L36.87,20.37l-11.8,1.35a.75.75,0,0,0-.46.23L.13,47a.44.44,0,0,0-.06.55l11.11,16a17.14,17.14,0,0,1,3,8.64c.21,3.29.91,7.63,3.05,9.8a.07.07,0,0,0,.06,0C18.33,81.84,41,76.31,41,57.16Z" transform="translate(0 0)" /><path d="M9.67,27.56l11-9.45.06,0L28.48,17a.16.16,0,0,0,.14-.16L28,3a.19.19,0,0,0-.11-.16L22.25.6a.66.66,0,0,0-.65.09l-14,10.66a.13.13,0,0,0,0,.13l1.84,16A.17.17,0,0,0,9.67,27.56Z" transform="translate(0 0)" /><path d="M35.27,15.7,51.22,13a3.14,3.14,0,0,0,2-1.78L54,5.85a.81.81,0,0,0-.3-.83L48.1.72A3.46,3.46,0,0,0,44.75.23L34.91,4a.13.13,0,0,0-.08.14l.3,11.46A.12.12,0,0,0,35.27,15.7Z" transform="translate(0 0)" /><path d="M52.4,37.64l3.1,2.3a9,9,0,0,0,5.4,1.79H64a.7.7,0,0,0,.68-.52L72.26,12a.08.08,0,0,0,0-.08l-2.12-1.54a8.34,8.34,0,0,0-4.91-1.59h-4.6a.09.09,0,0,0-.09.06L52.29,37.31A.3.3,0,0,0,52.4,37.64Z" transform="translate(0 0)" /><path d="M85.91,25.83l-2.78-4.32a1.11,1.11,0,0,0-.87-.51l-5.9-.26a.53.53,0,0,0-.53.37l-6.66,21.6a.35.35,0,0,0,.1.36A10.48,10.48,0,0,0,77,46l1-.4a6.58,6.58,0,0,0,3.77-4.13l4.36-14A1.85,1.85,0,0,0,85.91,25.83Z" transform="translate(0 0)" /></g></svg>