<svg xmlns="http://www.w3.org/2000/svg" viewBox="0 0 130.47 130.47"><defs><style>.a0f5d52e-2223-48b2-8d7a-9f604cd86f6b{fill:#fff;}</style></defs><g id="fb156317-68f6-4e5a-8743-244cea25872b" data-name="Ebene 2"><circle cx="65.23" cy="65.23" r="63.23"/><path class="a0f5d52e-2223-48b2-8d7a-9f604cd86f6b" d="M65.23,130.47a65.24,65.24,0,1,1,65.24-65.24A65.31,65.31,0,0,1,65.23,130.47ZM65.23,4a61.24,61.24,0,1,0,61.24,61.23A61.3,61.3,0,0,0,65.23,4Z"/><path class="a0f5d52e-2223-48b2-8d7a-9f604cd86f6b" d="M76.34,102.27a36.94,36.94,0,1,1,36.94-36.94A37,37,0,0,1,76.34,102.27Zm0-71.87a34.94,34.94,0,1,0,34.94,34.93A35,35,0,0,0,76.34,30.4Z"/><path class="a0f5d52e-2223-48b2-8d7a-9f604cd86f6b" d="M76.38,35.4a29.94,29.94,0,1,0,29.93,29.93A30,30,0,0,0,76.38,35.4Z"/><circle cx="53.33" cy="65.33" r="35.94"/><path class="a0f5d52e-2223-48b2-8d7a-9f604cd86f6b" d="M53.33,102.27A36.94,36.94,0,1,1,90.27,65.33,37,37,0,0,1,53.33,102.27Zm0-71.87A34.94,34.94,0,1,0,88.27,65.33,35,35,0,0,0,53.33,30.4Z"/></g></svg>