<svg xmlns="http://www.w3.org/2000/svg" viewBox="0 0 95.74 92.59"><g id="b90177b8-3ac0-495b-8954-8e860893364b" data-name="Ebene 2"><path d="M47.87,92.63" /><path d="M47.81,0,3.59,8.31a.58.58,0,0,0-.45.77,40.82,40.82,0,0,1,2.4,12.28C5.54,36.13,0,40.87,0,59.07,0,74.48,26.89,83.88,36.54,86.89a26.83,26.83,0,0,1,5.79,2.59c2.15,1.29,4.76,2.73,5.4,3.07a.28.28,0,0,0,.28,0c.63-.34,3.24-1.78,5.4-3.07a26.62,26.62,0,0,1,5.79-2.59c9.65-3,36.54-12.41,36.54-27.82,0-18.2-5.54-22.94-5.54-37.71A40.51,40.51,0,0,1,92.6,9.08a.58.58,0,0,0-.45-.77L47.92,0Z" /></g></svg>