<svg xmlns="http://www.w3.org/2000/svg" viewBox="0 0 135.88 135.87"><defs><style>.f520aab5-0dad-4400-ad8f-4eea506df1fe{fill:#4ba5dc;}.e79f0dc7-6032-481f-9043-98ae7d34d85f{fill:#fff;}</style></defs><g id="e3181ed9-a507-49ef-8739-df0afcefc85d" data-name="Ebene 2"><rect class="f520aab5-0dad-4400-ad8f-4eea506df1fe" x="19.38" y="19.38" width="97.11" height="97.11" rx="4.17" transform="translate(67.94 -28.14) rotate(45)"/><path class="e79f0dc7-6032-481f-9043-98ae7d34d85f" d="M67.94,135.87a5.13,5.13,0,0,1-3.66-1.51L1.51,71.59a5.18,5.18,0,0,1,0-7.31L64.28,1.51a5.18,5.18,0,0,1,7.31,0l62.77,62.77a5.15,5.15,0,0,1,0,7.31L71.59,134.36A5.1,5.1,0,0,1,67.94,135.87ZM67.94,2a3.14,3.14,0,0,0-2.24.93L2.93,65.7a3.16,3.16,0,0,0,0,4.48L65.7,133a3.26,3.26,0,0,0,4.48,0L133,70.18a3.2,3.2,0,0,0,.93-2.24A3.14,3.14,0,0,0,133,65.7L70.18,2.93A3.16,3.16,0,0,0,67.94,2Z"/><path class="e79f0dc7-6032-481f-9043-98ae7d34d85f" d="M95.25,94.24A5.16,5.16,0,0,0,98,93.62c1-.85,2-3.63,2-14.92,0-10.58-.63-13.59-1-14.44a.56.56,0,0,0-.49-.35c-1.73-.12-10.92-.51-16.23,4.29a.63.63,0,0,1-.86,0c-6.85-6.37-16.82-4.56-21.35-.78a.41.41,0,0,1-.67-.21C57.59,59.68,56.53,56.86,56.53,54a17.8,17.8,0,0,1,2.53-7.62.51.51,0,0,1,.72-.11A15.63,15.63,0,0,0,68.6,48.9,15.25,15.25,0,0,0,77.77,46a.23.23,0,0,0,.08-.11c.27-1.09,3.41-14.44-9-14.44-12.06,0-21.82,9-23.07,10.15a.64.64,0,0,0-.18.32c-.33,1.63-1.94,9.92-4.76,15.06-2.9,5.31-5,18-5,21.41a27.71,27.71,0,0,0,1.83,8.12.11.11,0,0,0,.08.08c1.31.45,23.07,7.8,30.12,7.8,6.49,0,13.29-2.87,14.67-3.48a.45.45,0,0,1,.46,0C84,91.67,87.94,94.24,95.25,94.24Z"/></g></svg>