<svg xmlns="http://www.w3.org/2000/svg" viewBox="0 0 135.87 135.87"><defs><style>.e614b001-6259-487f-871b-accb37cd383d{fill:#1e3264;}.aa5f9efc-8368-4fef-875d-b927b1960aa8{fill:#fff;}</style></defs><g id="a27048ed-1df9-4e66-a91c-0a8c0df71afb" data-name="Ebene 2"><rect class="e614b001-6259-487f-871b-accb37cd383d" x="19.38" y="19.38" width="97.11" height="97.11" rx="4.17" transform="translate(67.94 -28.14) rotate(45)"/><path class="aa5f9efc-8368-4fef-875d-b927b1960aa8" d="M67.93,135.87a5.14,5.14,0,0,1-3.65-1.51L1.51,71.59a5.18,5.18,0,0,1,0-7.31L64.28,1.51a5.18,5.18,0,0,1,7.31,0l62.77,62.77a5.18,5.18,0,0,1,0,7.31L71.59,134.36A5.15,5.15,0,0,1,67.93,135.87ZM65.69,133a3.19,3.19,0,0,0,4.49,0l62.76-62.77a3.16,3.16,0,0,0,0-4.48L70.18,2.93a3.17,3.17,0,0,0-4.49,0L2.93,65.7a3.16,3.16,0,0,0,0,4.48Z"/><path class="aa5f9efc-8368-4fef-875d-b927b1960aa8" d="M108.33,62.15,90,54a.29.29,0,0,1-.13-.4l7.27-13.8a.29.29,0,0,0-.32-.41L78,44.15a.29.29,0,0,1-.3-.1L65.07,27.38a.29.29,0,0,0-.49.06L55.35,48.77a.29.29,0,0,1-.26.18H34.69a.29.29,0,0,0-.23.46L45.82,64.16a.29.29,0,0,1,0,.39L27.84,80.39a.28.28,0,0,0,.15.49l23.88,3.63a.31.31,0,0,1,.25.28l.37,20.51a.29.29,0,0,0,.48.21L67,93.23a.28.28,0,0,1,.38,0l11.4,10.46a.29.29,0,0,0,.48-.21V85.87a.29.29,0,0,1,.33-.28l19.34,3a.28.28,0,0,0,.3-.39L92,71.35a.29.29,0,0,1,.14-.37l16.24-8.31A.29.29,0,0,0,108.33,62.15ZM76.68,79.84,74.08,90.7a.28.28,0,0,1-.47.14l-7.2-6.67a.28.28,0,0,0-.38,0L59,90.37a.28.28,0,0,1-.47-.21l-.23-12.31a.29.29,0,0,0-.24-.28L46.11,75.76a.28.28,0,0,1-.17-.46l8.4-10a.29.29,0,0,0,0-.33l-5.45-8.91a.28.28,0,0,1,.24-.43H60a.26.26,0,0,0,.25-.16l6.65-13.74a.29.29,0,0,1,.49,0L75.51,53a.3.3,0,0,0,.35.1l8.23-3.58a.29.29,0,0,1,.37.38L81.2,57.49a.29.29,0,0,0,.14.38l10.47,4.91a.28.28,0,0,1,0,.49L83,69.19a.29.29,0,0,0-.1.35l4.36,10.21a.29.29,0,0,1-.28.4l-10-.53A.28.28,0,0,0,76.68,79.84Z"/><path class="aa5f9efc-8368-4fef-875d-b927b1960aa8" d="M63.5,80.2l3.84-3.37a.16.16,0,0,1,.22,0l3.92,3.63a.17.17,0,0,0,.28-.08l1.41-5.92a.18.18,0,0,1,.18-.13l5.42.29a.17.17,0,0,0,.17-.23l-2.38-5.57a.17.17,0,0,1,.06-.2l4.84-3.23a.17.17,0,0,0,0-.29l-5.7-2.67a.17.17,0,0,1-.09-.22l1.77-4.12a.17.17,0,0,0-.22-.22l-4.46,1.94a.17.17,0,0,1-.21-.05L68.12,53.6a.17.17,0,0,0-.29,0L64.2,61.12a.16.16,0,0,1-.15.1H58.13a.16.16,0,0,0-.14.25l3,4.85a.18.18,0,0,1,0,.2L56.36,72a.16.16,0,0,0,.1.27l6.49,1a.16.16,0,0,1,.14.16l.13,6.71A.17.17,0,0,0,63.5,80.2Z"/></g></svg>