<svg xmlns="http://www.w3.org/2000/svg" viewBox="0 0 135.87 135.87"><defs><style>.add9126a-4820-4a3a-b123-259867856913{fill:#b80000;}.f6ea3bd3-17a9-4870-ae05-a8e8e64511e6{fill:#fff;}</style></defs><g id="f343515c-c8c1-41b6-9969-2868dd809405" data-name="Ebene 2"><rect class="add9126a-4820-4a3a-b123-259867856913" x="19.38" y="19.38" width="97.11" height="97.11" rx="4.17" transform="translate(67.93 -28.14) rotate(45)"/><path class="f6ea3bd3-17a9-4870-ae05-a8e8e64511e6" d="M67.93,135.87a5.14,5.14,0,0,1-3.65-1.51L1.51,71.59a5.18,5.18,0,0,1,0-7.31L64.28,1.51a5.18,5.18,0,0,1,7.31,0l62.77,62.77a5.18,5.18,0,0,1,0,7.31L71.59,134.36A5.15,5.15,0,0,1,67.93,135.87ZM67.93,2a3.16,3.16,0,0,0-2.24.93L2.93,65.69a3.17,3.17,0,0,0,0,4.49l62.76,62.76a3.25,3.25,0,0,0,4.49,0l62.76-62.76a3.17,3.17,0,0,0,0-4.49L70.18,2.93A3.16,3.16,0,0,0,67.93,2Z"/><path class="f6ea3bd3-17a9-4870-ae05-a8e8e64511e6" d="M67.93,88.15A20.22,20.22,0,1,1,88.15,67.93,20.24,20.24,0,0,1,67.93,88.15Zm0-32.44A12.22,12.22,0,1,0,80.15,67.93,12.24,12.24,0,0,0,67.93,55.71Z"/><path class="f6ea3bd3-17a9-4870-ae05-a8e8e64511e6" d="M67.93,105.67a37.74,37.74,0,1,1,37.74-37.74A37.78,37.78,0,0,1,67.93,105.67Zm0-66.47A28.74,28.74,0,1,0,96.67,67.93,28.76,28.76,0,0,0,67.93,39.2Z"/></g></svg>