<svg xmlns="http://www.w3.org/2000/svg" viewBox="0 0 130.47 130.47"><defs><style>.bdb825d3-f55f-417f-86cc-96f74d63ba17{fill:#96aabe;}.ae5ffd0c-090a-4f38-8de1-e974013de5ca{fill:#fff;}</style></defs><g id="b03dce7f-12be-4ebe-b129-82eadde6d0f0" data-name="Ebene 2"><circle class="bdb825d3-f55f-417f-86cc-96f74d63ba17" cx="65.23" cy="65.23" r="63.23"/><path class="ae5ffd0c-090a-4f38-8de1-e974013de5ca" d="M65.23,130.47a65.24,65.24,0,1,1,65.24-65.24A65.31,65.31,0,0,1,65.23,130.47ZM65.23,4a61.24,61.24,0,1,0,61.24,61.23A61.3,61.3,0,0,0,65.23,4Z"/><path class="ae5ffd0c-090a-4f38-8de1-e974013de5ca" d="M13.52,70.88c6.37-.7,12.8,1.09,18.64,3.52C41,77.91,49,83.13,57.62,86.89c5.58,2.39,11.23,5.2,17.32,5.18,7,0,16.43-1.62,15.53-10.38-.21-4-2.72-4.75-6.21-4.66-3.76-.17-5.82,3.43-6.06,6.9-.39-2.76.32-6.23,3-7.84A7.58,7.58,0,0,1,84.51,75a14.15,14.15,0,0,1,2.55-.22c9,.44,8.71,14.11,2.41,18.17C84.35,96.54,78,97.12,72,96.87c-5.87-.71-11.25-3.11-16.43-5.57C46.67,87.12,39,81.47,30.88,77.1c-5.43-3-11.14-5.5-17.36-6.22Z"/><path class="ae5ffd0c-090a-4f38-8de1-e974013de5ca" d="M34.36,69.39C44,71.75,54.2,73.61,64,71.42a45.08,45.08,0,0,0,13.22-5.94c4.41-2.65,7.5-6.49,11.48-9.72C93,52.2,99.09,49.69,104.85,51c7.22,1.36,15,9.51,10.3,16.85-3.68,6.1-15.07,8.2-17.88.42-.9-2.41-1.1-5.68.91-7.54-2,3.07-.16,7.57,2.67,9.4,2.93,1.65,6.86.2,9.21-1.69,5.09-4.26,2-9.36-3.08-11.81-8-3.82-15.31,2.69-20.72,8.12-8.08,7-18.71,11.69-29.52,10.9a60.79,60.79,0,0,1-22.38-6.22Z"/><path class="ae5ffd0c-090a-4f38-8de1-e974013de5ca" d="M21,60.82c6,.17,12.83.33,18.09-2.79A12.13,12.13,0,0,0,42,55.54a33.7,33.7,0,0,0,4.22-5.93c1.77-3.23,3.14-7.33,5.41-10.55a33.17,33.17,0,0,1,2.12-2.73,13,13,0,0,1,7.68-4.44C69.84,30.51,81,35.38,80.82,44c0,5.34-1.39,11.29-5.74,15s-12.54,4.83-16.8.59c-3.1-3.25-3.49-9.77.16-12.19,2.25-1.49,7.13-.42,7,2.42a3.4,3.4,0,0,0-2.92-2c-4.17-.93-5.12,4-4,7C60,59.63,66,59.18,69.64,57.58c5.18-2.24,6.44-8.32,6.34-13.52-.42-6.48-9.7-9-14.84-7.21A11.67,11.67,0,0,0,57.75,39c-3.75,3.64-5.31,8.17-8.16,12.64C47.37,54.81,44.86,58,41.53,60a11.17,11.17,0,0,1-1.47.73c-6.05,2.44-12.89,1.61-19,.08Z"/></g></svg>