<svg xmlns="http://www.w3.org/2000/svg" viewBox="0 0 135.87 135.87"><defs><style>.a735b4f9-1130-488f-b999-5a623dc781f7{fill:#ff7300;}.a4babc47-5e2d-4b20-8a4f-a8d0ee10d08a{fill:#fff;}</style></defs><g id="b3c598ca-5469-40bb-98e5-e38dfde5c9ff" data-name="Ebene 2"><rect class="a735b4f9-1130-488f-b999-5a623dc781f7" x="19.38" y="19.38" width="97.11" height="97.11" rx="4.17" transform="translate(67.94 -28.14) rotate(45)"/><path class="a4babc47-5e2d-4b20-8a4f-a8d0ee10d08a" d="M67.94,135.87a5.15,5.15,0,0,1-3.66-1.51L1.51,71.59a5.18,5.18,0,0,1,0-7.31L64.28,1.51a5.18,5.18,0,0,1,7.31,0l62.77,62.77a5.18,5.18,0,0,1,0,7.31L71.59,134.36A5.14,5.14,0,0,1,67.94,135.87ZM67.94,2a3.16,3.16,0,0,0-2.24.93L2.93,65.7A3.12,3.12,0,0,0,2,67.94a3.16,3.16,0,0,0,.93,2.24L65.7,132.94a3.16,3.16,0,0,0,4.48,0L133,70.18a3.19,3.19,0,0,0,.92-2.24A3.15,3.15,0,0,0,133,65.7L70.18,2.93A3.16,3.16,0,0,0,67.94,2Z"/><path class="a4babc47-5e2d-4b20-8a4f-a8d0ee10d08a" d="M46.73,84.43a28,28,0,0,1,4.67-8.75A81.81,81.81,0,0,0,65.63,53.31a3.11,3.11,0,0,1,5.73,0A85.24,85.24,0,0,0,85.59,76.19a23.77,23.77,0,0,1,3.1,4.88c1.36-1.32,2.36-2.11,2.36-4.32,0-2.37-1.78-3.26-1.78-7.32s3.66-5.73,3.66-11.67a9.67,9.67,0,0,0-4.75-8.4s-2.57,6-5,6-4.06-2.62-4.06-4.9,2.47-5.63,2.47-8.9-4.94-7.91-4.94-7.91.1,5.93-6.93,5.93-5.43-13.35-5.43-13.35-6.83,3.37-6.83,10,9.3,25.82-.89,15.63-12-5.84-12-5.84,10.2,11.08,3.57,17.71C41.66,70.16,41.32,83.79,46.73,84.43Z"/><path class="a4babc47-5e2d-4b20-8a4f-a8d0ee10d08a" d="M80.74,76.76c-.91-1.23-10.09-12.17-12-23.25a.12.12,0,0,0-.24,0c-2,11.13-11.08,22-12,23.25-2.11,2.85-6.6,8.58-6.6,17.48s9.28,17.81,18.72,17.81,18.72-8.9,18.72-17.81S82.85,79.61,80.74,76.76Z"/></g></svg>